<svg id="Layer_1" data-name="Layer 1" xmlns="http://www.w3.org/2000/svg" xmlns:xlink="http://www.w3.org/1999/xlink" viewBox="0 0 70 57"><defs><style>.cls-1{fill:none;}.cls-2{clip-path:url(#clip-path);}.cls-3{fill:#ff5f00;}.cls-4{fill:#eb001b;}.cls-5{fill:#f79e1b;}</style><clipPath id="clip-path"><rect id="_Rectangle_" data-name="&lt;Rectangle&gt;" class="cls-1" y="-0.04" width="70" height="57.08"/></clipPath></defs><title>mc_sym_debit_pos_70</title><g class="cls-2"><path d="M25.41,48.08a2.17,2.17,0,0,1,1,.21,2,2,0,0,1,.71.54V45.71h.82V53H27.1v-.64a2,2,0,0,1-.71.54,2.17,2.17,0,0,1-1,.21,2.36,2.36,0,0,1-1.71-.71,2.47,2.47,0,0,1-.5-.79,2.73,2.73,0,0,1,0-2,2.37,2.37,0,0,1,.5-.79,2.34,2.34,0,0,1,.76-.52A2.52,2.52,0,0,1,25.41,48.08Zm.09.78a1.6,1.6,0,0,0-.67.13,1.68,1.68,0,0,0-.53.37,1.79,1.79,0,0,0-.33.55,1.93,1.93,0,0,0,0,1.34,1.58,1.58,0,0,0,1.53,1,1.6,1.6,0,0,0,.67-.13,1.57,1.57,0,0,0,.52-.36,1.7,1.7,0,0,0,.34-.55,1.91,1.91,0,0,0,.12-.68A1.87,1.87,0,0,0,27,49.9a1.82,1.82,0,0,0-.34-.55,1.73,1.73,0,0,0-.52-.36A1.6,1.6,0,0,0,25.5,48.86Zm6.1-.78a2.27,2.27,0,0,1,.91.18,2.43,2.43,0,0,1,.71.51,2.29,2.29,0,0,1,.46.79,2.7,2.7,0,0,1,.18,1,.81.81,0,0,1,0,.16v.15H30.08a1.77,1.77,0,0,0,.19.65,1.4,1.4,0,0,0,.36.47,1.47,1.47,0,0,0,.49.27,1.92,1.92,0,0,0,.59.09,2.09,2.09,0,0,0,.79-.15,2.27,2.27,0,0,0,.68-.42l.44.57a3,3,0,0,1-.46.35,2.56,2.56,0,0,1-.48.22,2.23,2.23,0,0,1-.51.12,4.38,4.38,0,0,1-.52,0,2.63,2.63,0,0,1-1-.18,2.21,2.21,0,0,1-.76-.51,2.34,2.34,0,0,1-.51-.79,2.8,2.8,0,0,1-.18-1,2.75,2.75,0,0,1,.18-1,2.37,2.37,0,0,1,.5-.79,2.17,2.17,0,0,1,.75-.51A2.3,2.3,0,0,1,31.6,48.08Zm0,.73a1.58,1.58,0,0,0-.58.11,1.21,1.21,0,0,0-.44.29,1.35,1.35,0,0,0-.31.43,1.72,1.72,0,0,0-.17.57H33a2,2,0,0,0-.16-.58,1.55,1.55,0,0,0-.3-.44,1.52,1.52,0,0,0-.43-.28A1.62,1.62,0,0,0,31.59,48.81Zm6.08-.73a2.43,2.43,0,0,1,.94.19,2.34,2.34,0,0,1,.76.52,2.56,2.56,0,0,1,.51.79,2.61,2.61,0,0,1-.51,2.79,2.51,2.51,0,0,1-.76.52,2.43,2.43,0,0,1-.94.19,2.19,2.19,0,0,1-1-.21,2,2,0,0,1-.7-.54V53h-.82V45.71H36v3.11a2.06,2.06,0,0,1,.7-.53A2.19,2.19,0,0,1,37.67,48.08Zm-.1.78a1.59,1.59,0,0,0-.66.13,1.61,1.61,0,0,0-.52.36,1.82,1.82,0,0,0-.34.55,1.87,1.87,0,0,0-.12.68,1.91,1.91,0,0,0,.12.68,1.7,1.7,0,0,0,.34.55,1.47,1.47,0,0,0,.52.36,1.59,1.59,0,0,0,.66.13,1.56,1.56,0,0,0,1.2-.5,1.62,1.62,0,0,0,.33-.55,1.93,1.93,0,0,0,0-1.34,1.64,1.64,0,0,0-.34-.55,1.59,1.59,0,0,0-.51-.37A1.68,1.68,0,0,0,37.57,48.86Zm4.2-3A.46.46,0,0,1,42,46a.51.51,0,0,1,.31.31.55.55,0,0,1,0,.46.57.57,0,0,1-.12.18A.76.76,0,0,1,42,47a.68.68,0,0,1-.46,0,.55.55,0,0,1-.3-.3.55.55,0,0,1,0-.46.76.76,0,0,1,.12-.19.57.57,0,0,1,.18-.12A.46.46,0,0,1,41.77,45.91ZM42.19,53h-.82V48.18h.82Zm4.91-4h-2v2.33a1.33,1.33,0,0,0,.07.47,1,1,0,0,0,.19.32.84.84,0,0,0,.28.18,1,1,0,0,0,.36.06,1.5,1.5,0,0,0,.52-.09A1.65,1.65,0,0,0,47,52l.39.62a2.53,2.53,0,0,1-.63.34,2.29,2.29,0,0,1-.81.14,2.12,2.12,0,0,1-.69-.11,1.45,1.45,0,0,1-.52-.33,1.37,1.37,0,0,1-.33-.56,2.36,2.36,0,0,1-.11-.79V48.94h-1v-.76h1v-1.5h.82v1.5h2Z"/><g id="Circles_only" data-name="Circles only"><rect class="cls-3" x="27.13" y="7.96" width="15.66" height="28.14"/><path class="cls-4" d="M28.17,22A17.86,17.86,0,0,1,35,8a17.9,17.9,0,1,0-11.06,32A17.78,17.78,0,0,0,35,36.1,17.87,17.87,0,0,1,28.17,22"/><path class="cls-5" d="M62.25,33.12v-.58h.24v-.11h-.6v.11h.24v.58Zm1.15,0v-.7h-.18L63,32.9l-.21-.48h-.18v.7h.13V32.6l.2.45h.13l.19-.46v.53Z"/><path class="cls-5" d="M46.06,4.13A17.82,17.82,0,0,0,35,8,17.89,17.89,0,0,1,35,36.1a17.9,17.9,0,1,0,11.06-32"/></g></g></svg>